<?xml version="1.0" encoding="utf-8"?>
<!-- Generator: Adobe Illustrator 24.0.1, SVG Export Plug-In . SVG Version: 6.00 Build 0)  -->
<svg version="1.1" id="Слой_1" xmlns="http://www.w3.org/2000/svg" xmlns:xlink="http://www.w3.org/1999/xlink" x="0px" y="0px"
	 viewBox="0 0 56.6 56.6" style="enable-background:new 0 0 56.6 56.6;" xml:space="preserve">
<style type="text/css">
	.st0{fill:#4D4D4D;}
	.st1{fill:#333333;}
	.st2{fill:#808080;}
	.st3{fill:#B3B3B3;}
	.st4{fill:#CCCCCC;}
	.st5{fill:#999999;}
	.st6{fill:#1A1A1A;}
	.st7{fill:#E6E6E6;}
</style>
<g>
	<path class="st0" d="M2.3,28.5c1.7-0.3,4.8-0.2,6.9,0c1.3,0.7,2.5,1.2,2.5,4.1c0,1.2-0.9,2.5-2,2.9c-4.6,1.9-4.5,1.9-5.4,2.1
		c-1.3,0.3-3.2-0.5-3.7-2.4C-0.3,31.8-0.9,30.1,2.3,28.5z"/>
	<path class="st1" d="M9.8,20.1c-0.2-0.1-4.2-1.6-5-2.1c-1.9-1.3-1.9-3.5-0.9-4.7c0.6-0.7,1-1.5,1.5-2.2c1.1-1.6,3.5-1.9,5.1-0.3
		c3.5,3.6,6.3,5,3,8.8C13,20.3,11.5,20.8,9.8,20.1z"/>
	<path class="st2" d="M16.7,52.9c-1.5,0.4-1.7,1-5.4-1.7C9.6,50,9.5,48.7,10,47.5c0.6-1.3,4.3-5.5,5.7-5.8c0.7-0.2,0.9-0.2,1.7-0.1
		c0.9,0.1,2.6,1.1,3,3c0.3,1.5-0.7,3-2,6.4C18.1,51.8,17.3,52.7,16.7,52.9z"/>
	<path class="st2" d="M40.7,41.6c0.8,0.4,1.6,0.9,2.2,1.6c2.9,3.1,6.8,5.3,0.9,9c-0.8,0.5-1.4,1-2.2,0.9c-3.5-0.2-3-1.8-5.3-6.7
		c-0.7-1.4-0.1-3.3,1.2-4c0.5-0.3,1.1-1,2.4-0.9C40.2,41.6,40.5,41.6,40.7,41.6z"/>
	<path class="st3" d="M44.9,33.1c-0.1-0.7,0-1.5,0.2-2.3c0.9-3.2,3.7-2.4,8.2-2.4c1.7,0,3.5,1.3,3.2,3.8c-0.1,0.4-0.4,2.5-0.6,3.1
		c-0.6,1.7-2,2.4-3.6,2.2c-0.8-0.1-4.9-1.9-6.2-2.6C45.7,34.7,45,33.7,44.9,33.1z"/>
	<path d="M21.4,10.3c-0.8-1.2-2.2-5-2.4-5.4c-0.4-1.1-0.2-2.2,0.2-2.9c1.1-1.6,2.5-1.5,3.5-1.7c2.7-0.5,4.3-0.1,5,2.6
		c0,0.1,0,4.1,0,5.4c-0.1,2.1-1.6,3.3-2.7,3.4C22.9,11.8,21.5,10.3,21.4,10.3z"/>
	<path class="st4" d="M44.6,20.3c-1.7-0.3-1.3-0.4-2.4-2c-0.3-0.5-0.5-1-0.5-1.6c0-2,0.9-2.2,4.2-5.7c1.3-1.4,2.2-1.2,3.4-1.2
		c0.9,0.4,1.4,0.5,2.2,1.8c0.7,1.2,1.8,2.2,1.6,3.6c-0.2,2.3-1.4,2.6-3.3,3.4c-3.1,1.6-1.8,1.2-4,1.6C45.5,20.4,44.9,20.4,44.6,20.3
		z"/>
	<path class="st5" d="M37.6,52.8c0,0.7-0.2,1.4-0.6,1.9c-0.8,1.1-4,1.8-4.7,1.8c-2.1,0.2-3.5-1.5-3.5-3c0-4.8-1-8.3,3.6-8.6
		c1.2-0.1,2.6,0.7,3.1,2.1C37.4,51.9,37.6,51.3,37.6,52.8z"/>
	<path class="st2" d="M19.1,54c-0.4-2,0-2.3,1.1-4.7c0.9-2.1,1.1-3,1.8-3.5c2.2-1.8,5.9-0.6,5.9,2.9c0,4.4,0,5-0.2,5.6
		c-0.6,1.8-2,2.7-4.1,2.3C20.8,55.9,20.1,55.9,19.1,54z"/>
	<path class="st0" d="M8.4,46.4c-1.1,0.2-2.1,0.1-3-1.1c-1.7-2-2.9-4-1.3-6c0.6-0.7,1.5-1,2.3-1.3c4.8-2,3.8-1.6,5.1-1.8
		c0.3,0.1,0.7,0.1,1,0.3c2,0.8,3,3.3,1.4,5.2C13.4,42.1,9.7,46.1,8.4,46.4z"/>
	<path class="st6" d="M18.1,5.1c1.6,4,3.1,6,1.9,7.9c-0.7,1-1.5,1.7-2.8,1.7c-2,0-1.8-0.5-6.2-4.7C10,9,9.9,7,10.9,5.7
		c0.4-0.6,2.2-1.7,2.8-2C14.7,3,17.3,3.2,18.1,5.1z"/>
	<path class="st3" d="M45.5,36.1c0.3,0,0.6,0,4.8,1.8c2,0.8,3.3,1.9,2.8,4.2c-0.1,0.5-1.2,2.6-2,3.3c-1.6,1.5-3.5,1.1-4.5,0.2
		c-1.2-1.2-2.4-2.4-3.6-3.7C40.8,39.6,42.3,36.2,45.5,36.1z"/>
	<path class="st1" d="M3.6,27.5c-1.9,0-3.6-1.4-3.6-3.3c0-1.2,0.6-3.1,0.8-3.5c0.8-1.6,2.6-2.1,4.4-1.4c2,0.9,4.6,1.6,5.6,2.6
		c1.6,1.6,1,4.6-1.4,5.4C8.4,27.6,7.3,27.5,3.6,27.5z"/>
	<path class="st4" d="M44.9,5.1c1.3,0.9,1.8,2.8,0.9,4.3c-0.5,0.8-1.6,1.7-3.9,4.1c-2.3,2.4-6.2,0.5-5.8-2.8c0-0.3,1.8-4.8,2.8-6.4
		c0.3-0.5,0.8-0.7,1.3-0.8C42,2.8,43,3.8,44.9,5.1z"/>
	<path class="st3" d="M48,27.4c-3.1,0.1-4.6-4.8-1.1-6.3c0.6-0.3,4.7-1.9,5.4-2.1c1.3-0.3,3.2,0.5,3.7,2.4c0.3,1.2,1.7,4.9-1.7,5.9
		C53.4,27.5,52,27.3,48,27.4z"/>
	<path class="st7" d="M30.2,10.8c-0.6-0.5-1-1.1-1.2-2c0-5.8-0.5-7.4,1.9-8.5c1.1-0.5,1.8-0.2,3.3,0c2.4,0.3,3.6,2.1,3.4,3.4
		C37.4,5,35.4,9.5,35.1,10c-0.7,1-1.6,1.6-2.9,1.5C31.2,11.4,31.2,11.3,30.2,10.8z"/>
</g>
</svg>
